<?xml version="1.0" encoding="UTF-8"?>
<svg width="372px" height="291px" viewBox="0 0 372 291" version="1.1" xmlns="http://www.w3.org/2000/svg" xmlns:xlink="http://www.w3.org/1999/xlink">
    <!-- Generator: sketchtool 54.1 (76490) - https://sketchapp.com -->
    <title>CC4190E8-B00B-4C1D-8925-D1555FAAE527</title>
    <desc>Created with sketchtool.</desc>
    <defs>
        <path d="M0.0409888975,0 C0.301836811,97.038976 0.301836811,153.200495 0.0409888975,168.484557 C-1.4106797,253.543289 35.9780798,284.271246 67.4970515,286.008716 C121.231627,288.969231 140.18972,263.250641 165.868412,261.930602 C189.235388,260.730475 211.216341,271.859108 232.365277,281.869235 C256.925884,293.493639 278.201738,299.046871 305.193928,295.48982 C364.886359,287.623729 372.376745,247.569447 371.248743,220.917431 C370.997725,214.986474 371.581478,141.347331 373,0 L0.0409888975,0 Z" id="path-1"></path>
    </defs>
    <g id="Working-Curator-Prototype-(invision-demo)" stroke="none" stroke-width="1" fill="none" fill-rule="evenodd">
        <g id="Asset-Library_Curator-Dashboard_Review-Asset-2" transform="translate(-534.000000, -147.000000)">
            <g id="Group-2" transform="translate(390.000000, 141.000000)">
                <g id="Confirmation-Illustration" transform="translate(144.000000, 0.000000)">
                    <g id="Background07">
                        <mask id="mask-2" fill="white">
                            <use xlink:href="#path-1"></use>
                        </mask>
                        <g id="Background07Mask"></g>
                        <path d="M10.5552839,87.3690627 C-21.9920786,234.872828 27.4826924,283.802941 67.4970515,286.008716 C121.231627,288.969231 140.18972,263.250641 165.868412,261.930602 C189.235388,260.730475 211.216341,271.859108 232.365277,281.869235 C256.925884,293.493639 278.201738,299.046871 305.193928,295.48982 C384.811675,284.99803 371.560853,217.242751 368.859317,200.40369 C365.533265,179.671019 350.306152,156.065499 332.759264,148.261147 C283.933184,126.544995 246.944706,159.555037 224.815683,156.111851 C197.97257,151.936095 170.702369,140.270377 156.369724,116.503631 C140.509029,90.2036194 135.992367,37.7386234 107.968718,23.9668895 C51.0319863,-4.01289667 20.0741182,44.2289826 10.5552839,87.3690627" fill="#D0D0D0" mask="url(#mask-2)"></path>
                        <g id="Character/_Full-Character/Male-3" mask="url(#mask-2)">
                            <g transform="translate(-51.000000, 9.000000)">
                                <g id="Character/Head/Male/Short-Curvy-Beard" transform="translate(100.000000, 0.000000)">
                                    <path d="M32.9756439,40.6744889 C30.8860924,33.9133544 28.7167507,18.8346265 48.862133,14.5119608 C67.3963766,10.5334674 71.4945319,31.0489303 71.4945319,31.0489303 C71.6886503,31.9639838 71.9829879,32.8727078 72.0741784,33.7940907 C72.1698833,34.7507376 72.21593,35.7137138 72.3170522,36.6712648 C72.5156849,38.5791333 72.8226629,40.4851933 73.4339101,42.3089708 C73.9945962,43.9835549 74.8107964,45.5722396 75.8409782,47.0054014 C76.6012,48.0624148 78.3744489,49.7804006 77.9293309,51.2614852 C77.6620795,52.1521252 76.5127181,52.3935474 75.5890757,52.3103607 C73.6135824,52.1349453 72.6041668,52.231695 72.0841101,54.3348713 C71.7175423,55.8168601 71.8827687,57.3965028 71.3482659,58.8441319 C70.7027094,60.5955732 69.8395597,62.309038 68.5926876,63.7141695 C65.8894761,66.7550043 62.0080111,67.7116512 58.0597333,67.2640707 C56.5363351,67.0919392 55.1094838,66.8315001 53.7733748,66.4975221 C49.3416836,82.3366521 61.9913019,77.8524256 65.638722,82.5194199 C66.0478378,86.3207814 66.6884766,93.0705349 63.6308594,96.5058594 C60.5732422,99.9411839 55.3971423,100.583211 46.6582031,100 C37.9192639,99.416789 36.9331299,96.9940792 34.3791419,93.0947036 C32.6764833,90.4951198 32.6269299,85.9180764 34.2304816,79.3635733 C45.4965194,79.3635733 43.6707208,66.7330784 41.9401481,60.1133551 C38.0807191,56.436456 36.1958535,52.2968576 35.3794897,49.999834 C33.468384,51.8079584 29.6046911,49.3685214 28.2243669,47.5892798 C27.2799199,46.3723892 26.8468949,44.7698733 27.048566,43.2425052 C27.1810433,42.246476 27.6094466,41.2428372 28.4256285,40.6585558 C29.1990714,40.1037168 30.2190042,39.9992654 31.1608621,40.1282304 C31.790099,40.2143762 32.4027195,40.4019055 32.9756439,40.6744889 Z" id="Face" fill="#00A9F4"></path>
                                    <path d="M22.0341797,22.5195313 C20.4040856,17.1552734 18.9638672,12.206543 22.7080078,8.59814453 C26.4521484,4.98974609 28.6523438,8.06201172 33.0638688,4.97381964 C37.4753939,1.88562756 36.2670898,-1.92773437 40.2963867,-2.70654297 C44.3256836,-3.48535156 46.4259015,1.16455078 53.456543,1.16455078 C60.4871844,1.16455078 59.355957,-3.68505859 64.2578125,-2.70654297 C69.159668,-1.72802734 67.4331055,3.94726562 71.4171834,5.95041594 C75.4012614,7.95356626 75.2543945,2.12030401 78.934082,4.97381964 C80.5058292,6.19267456 81.5357063,9.61554141 81.1889648,11.6098633 C80.5316386,15.3990865 72.6978353,23.3896484 61.2288218,18.6342691 C58.3808594,17.2089844 56.9567052,16.9207265 54.6877046,16.8147536 C52.9691598,16.7354804 51.2270042,17.3748479 49.9690684,18.5452612 C48.6356176,19.7866129 47.8029932,22.8958359 46.6303711,24.2895508 C45.457749,25.6832657 39.1023609,28.7062174 40.2963867,35.559082 C41.3481604,50.0565815 50.3618657,57.0954011 54.8382468,57.0954011 C61.569794,57.0954011 69.744194,52.8806966 72.6978353,52.8806966 C72.0252135,54.4460178 71.705552,55.8509193 71.7388509,57.0954011 C66.3050944,58.0597593 63.5882161,59.3936815 63.5882161,61.097168 C63.5882161,62.3127676 64.7436374,63.0007302 65.989958,62.7470703 C67.3634436,62.467529 68.5089518,62.3127676 70.332194,61.097168 C74.636556,66.671875 74.4008789,76.8046875 63.5882161,77.1777344 C56.4038086,78.1803316 46.190918,73.8907076 45.1425781,62.7470703 C44.0942383,51.603433 33.3465163,40.7911029 33.0638688,40.684231 C29.5703125,39.3632813 27,40.684231 27,44.0904948 C27.1144206,49.3717448 33.8397624,51.2660726 35.3975016,50 C36.2379964,52.7491455 39.4039559,57.2921549 41.8857422,60.1297201 C27.6115788,59.3124757 20.3930664,48.7919922 19.3310547,35.559082 C18.636095,26.8997245 23.6642737,27.8837891 22.0341797,22.5195313 Z" id="Hair" fill="#1F40E6"></path>
                                </g>
                                <g id="Character/Legs/Standing/Pants" transform="translate(0.000000, 185.000000)">
                                    <g id="Character/Shoe/All-Star" transform="translate(182.000000, 202.000000)">
                                        <path d="M4.19873047,3 L4.19873047,3.33066907e-15 L15.6347656,-1.50317383 L18.4262695,5.87451172 C15.0453356,7.56954419 12.479906,8.32263664 10.7299805,8.13378906 C8.98005499,7.94494149 6.89192022,7.31241382 4.46557617,6.23620605 L4.19873047,3 Z" id="Skin" fill="#D0D0D0"></path>
                                        <path d="M4.46484375,5.13769531 C2.49707031,7.39160156 1.828125,12.8474121 1.828125,14.2973633 C1.44580078,16.8713379 1.83984375,18.4071729 2.38891602,19.116062 C2.74222098,19.5722024 8.21348755,19.9105596 18.8027157,20.1311333 L18.8027157,20.1311337 C19.5657679,20.147028 20.3284546,20.1772417 21.090373,20.2217588 C29.7282191,20.726447 36.4070792,20.8139043 41.1269531,20.4841309 C48.5103165,19.9682617 52.5131836,18.0003662 55.2585449,16.9953613 C58.0039062,15.9903564 56.0324707,10.0246582 50.0673828,10.2526913 C40.864502,8.02001953 32.8818079,6.50484858 27.355957,2.85498047 C24.1640625,0.609863281 20.2036133,0.544433594 18.4262695,-0.494628906 C18.1274414,0.199462891 17.9394531,1.71948242 17.0827637,3.32950574 C17.0650354,3.64272018 17.2006148,4.10694093 17.489502,4.72216797 C16.217041,6.70833333 14.3483073,7.72599284 11.8833008,7.77514648 C6.0391967,7.83544922 6.30151367,4.60205078 4.46484375,5.13769531 Z" id="shoe" fill="#B3B3B3"></path>
                                        <path d="M1.828125,14.7919922 C2.61035156,12.9331055 30.350856,17.5654483 55.0811768,12.1665039 C57.1145738,13.9472684 57.0528218,16.8331525 55.2585449,17.4899902 C52.5131836,18.4949951 48.5103165,20.4628906 41.1269531,20.9787598 C36.4070792,21.3085332 29.7282191,21.2210759 21.090373,20.7163877 C20.3284546,20.6718706 19.5657679,20.6416569 18.8027157,20.6257623 C8.21348755,20.4051885 2.74222098,20.0668314 2.38891602,19.6106909 C1.83984375,18.9018018 1.44580078,17.3659668 1.828125,14.7919922 Z M2.19662488,17.952792 C7.57042749,18.3041617 10.9790536,18.4797363 12.4387207,18.4797363 C13.3082689,18.4797363 14.3801114,18.5380165 19.4142051,18.8382246 C19.6885621,18.8545744 19.6885621,18.8545744 19.963334,18.870886 C23.7666801,19.0963906 25.8534682,19.1984863 27.0754395,19.1984863 C27.6201179,19.1984863 27.5623026,19.1970974 29.7060571,19.2551175 C33.2991527,19.3523637 35.6753159,19.3395189 38.2506916,19.1276819 C39.9068919,18.9914514 41.4270778,18.7758963 42.8092391,18.4677554 C43.0787646,18.4076671 43.2485469,18.1404622 43.1884586,17.8709367 C43.1283702,17.6014112 42.8611653,17.4316289 42.5916398,17.4917172 C41.2577782,17.7890901 39.7820215,17.9983454 38.1687137,18.1310477 C35.6390729,18.3391229 33.2921987,18.3518093 29.733112,18.2554836 C27.5717719,18.1969875 27.6341618,18.1984863 27.0754395,18.1984863 C25.8821728,18.1984863 23.8006178,18.0966466 20.0225212,17.8726391 C19.7479514,17.8563395 19.7479514,17.8563395 19.4737343,17.839998 C14.3897919,17.5368172 13.3400058,17.4797363 12.4387207,17.4797363 C11.0093904,17.4797363 7.61170142,17.304725 2.26187122,16.9549228 C1.98631725,16.9369055 1.74833073,17.1456803 1.73031345,17.4212343 C1.71229617,17.6967882 1.92107091,17.9347747 2.19662488,17.952792 Z" id="Shoe-Bottom" fill="#F0F0F0"></path>
                                        <path d="M22.5,4 C21.9477153,4 21.5,3.55228475 21.5,3 C21.5,2.44771525 21.9477153,2 22.5,2 C23.0522847,2 23.5,2.44771525 23.5,3 C23.5,3.55228475 23.0522847,4 22.5,4 Z M26,5.5 C25.4477153,5.5 25,5.05228475 25,4.5 C25,3.94771525 25.4477153,3.5 26,3.5 C26.5522847,3.5 27,3.94771525 27,4.5 C27,5.05228475 26.5522847,5.5 26,5.5 Z M30,7.5 C29.4477153,7.5 29,7.05228475 29,6.5 C29,5.94771525 29.4477153,5.5 30,5.5 C30.5522847,5.5 31,5.94771525 31,6.5 C31,7.05228475 30.5522847,7.5 30,7.5 Z M33.5,9 C32.9477153,9 32.5,8.55228475 32.5,8 C32.5,7.44771525 32.9477153,7 33.5,7 C34.0522847,7 34.5,7.44771525 34.5,8 C34.5,8.55228475 34.0522847,9 33.5,9 Z M37,10 C36.4477153,10 36,9.55228475 36,9 C36,8.44771525 36.4477153,8 37,8 C37.5522847,8 38,8.44771525 38,9 C38,9.55228475 37.5522847,10 37,10 Z M40.5,11 C39.9477153,11 39.5,10.5522847 39.5,10 C39.5,9.44771525 39.9477153,9 40.5,9 C41.0522847,9 41.5,9.44771525 41.5,10 C41.5,10.5522847 41.0522847,11 40.5,11 Z M44,12 C43.4477153,12 43,11.5522847 43,11 C43,10.4477153 43.4477153,10 44,10 C44.5522847,10 45,10.4477153 45,11 C45,11.5522847 44.5522847,12 44,12 Z" id="Shoelace-holes" fill="#F0F0F0"></path>
                                        <path d="M22.0491943,3 C22.2365316,1.8503418 22.613973,1.17781576 23.1815186,0.982421875 C23.7490641,0.787027995 24.2947998,0.96085612 24.8187256,1.50390625 C23.9395752,1.69010417 23.3208822,2.18880208 22.9626465,3 C22.6044108,3.81119792 22.2999268,3.81119792 22.0491943,3 Z M25.5,4.59513059 C25.6873372,3.44547239 26.0647786,2.77294634 26.6323242,2.57755246 C27.1998698,2.38215858 27.7456055,2.55598671 28.2695313,3.09903684 C27.3903809,3.28523476 26.7716878,3.78393267 26.4134521,4.59513059 C26.0552165,5.40632851 25.7507324,5.40632851 25.5,4.59513059 Z M29.5,6.59513059 C29.6873372,5.44547239 30.0647786,4.77294634 30.6323242,4.57755246 C31.1998698,4.38215858 31.7456055,4.55598671 32.2695312,5.09903684 C31.3903809,5.28523476 30.7716878,5.78393267 30.4134521,6.59513059 C30.0552165,7.40632851 29.7507324,7.40632851 29.5,6.59513059 Z M33,8.09513059 C33.1873372,6.94547239 33.5647786,6.27294634 34.1323242,6.07755246 C34.6998698,5.88215858 35.2456055,6.05598671 35.7695313,6.59903684 C34.8903809,6.78523476 34.2716878,7.28393267 33.9134521,8.09513059 C33.5552165,8.90632851 33.2507324,8.90632851 33,8.09513059 Z M36.5,9.09513059 C36.6873372,7.94547239 37.0647786,7.27294634 37.6323242,7.07755246 C38.1998698,6.88215858 38.7456055,7.05598671 39.2695313,7.59903684 C38.3903809,7.78523476 37.7716878,8.28393267 37.4134521,9.09513059 C37.0552165,9.90632851 36.7507324,9.90632851 36.5,9.09513059 Z M40,10.0951306 C40.1873372,8.94547239 40.5647786,8.27294634 41.1323242,8.07755246 C41.6998698,7.88215858 42.2456055,8.05598671 42.7695313,8.59903684 C41.8903809,8.78523476 41.2716878,9.28393267 40.9134521,10.0951306 C40.5552165,10.9063285 40.2507324,10.9063285 40,10.0951306 Z M43.5,11.0951306 C43.6873372,9.94547239 44.0647786,9.27294634 44.6323242,9.07755246 C45.1998698,8.88215858 45.7456055,9.05598671 46.2695313,9.59903684 C45.3903809,9.78523476 44.7716878,10.2839327 44.4134521,11.0951306 C44.0552165,11.9063285 43.7507324,11.9063285 43.5,11.0951306 Z" id="Shoelace" fill="#7F7F7F"></path>
                                    </g>
                                    <g id="Character/Shoe/All-Star" transform="translate(108.000000, 202.000000)">
                                        <path d="M4.19873047,3 L4.19873047,3.33066907e-15 L15.6347656,-1.50317383 L18.4262695,5.87451172 C15.0453356,7.56954419 12.479906,8.32263664 10.7299805,8.13378906 C8.98005499,7.94494149 6.89192022,7.31241382 4.46557617,6.23620605 L4.19873047,3 Z" id="Skin" fill="#D0D0D0"></path>
                                        <path d="M4.46484375,5.13769531 C2.49707031,7.39160156 1.828125,12.8474121 1.828125,14.2973633 C1.44580078,16.8713379 1.83984375,18.4071729 2.38891602,19.116062 C2.74222098,19.5722024 8.21348755,19.9105596 18.8027157,20.1311333 L18.8027157,20.1311337 C19.5657679,20.147028 20.3284546,20.1772417 21.090373,20.2217588 C29.7282191,20.726447 36.4070792,20.8139043 41.1269531,20.4841309 C48.5103165,19.9682617 52.5131836,18.0003662 55.2585449,16.9953613 C58.0039062,15.9903564 56.0324707,10.0246582 50.0673828,10.2526913 C40.864502,8.02001953 32.8818079,6.50484858 27.355957,2.85498047 C24.1640625,0.609863281 20.2036133,0.544433594 18.4262695,-0.494628906 C18.1274414,0.199462891 17.9394531,1.71948242 17.0827637,3.32950574 C17.0650354,3.64272018 17.2006148,4.10694093 17.489502,4.72216797 C16.217041,6.70833333 14.3483073,7.72599284 11.8833008,7.77514648 C6.0391967,7.83544922 6.30151367,4.60205078 4.46484375,5.13769531 Z" id="shoe" fill="#B3B3B3"></path>
                                        <path d="M1.828125,14.7919922 C2.61035156,12.9331055 30.350856,17.5654483 55.0811768,12.1665039 C57.1145738,13.9472684 57.0528218,16.8331525 55.2585449,17.4899902 C52.5131836,18.4949951 48.5103165,20.4628906 41.1269531,20.9787598 C36.4070792,21.3085332 29.7282191,21.2210759 21.090373,20.7163877 C20.3284546,20.6718706 19.5657679,20.6416569 18.8027157,20.6257623 C8.21348755,20.4051885 2.74222098,20.0668314 2.38891602,19.6106909 C1.83984375,18.9018018 1.44580078,17.3659668 1.828125,14.7919922 Z M2.19662488,17.952792 C7.57042749,18.3041617 10.9790536,18.4797363 12.4387207,18.4797363 C13.3082689,18.4797363 14.3801114,18.5380165 19.4142051,18.8382246 C19.6885621,18.8545744 19.6885621,18.8545744 19.963334,18.870886 C23.7666801,19.0963906 25.8534682,19.1984863 27.0754395,19.1984863 C27.6201179,19.1984863 27.5623026,19.1970974 29.7060571,19.2551175 C33.2991527,19.3523637 35.6753159,19.3395189 38.2506916,19.1276819 C39.9068919,18.9914514 41.4270778,18.7758963 42.8092391,18.4677554 C43.0787646,18.4076671 43.2485469,18.1404622 43.1884586,17.8709367 C43.1283702,17.6014112 42.8611653,17.4316289 42.5916398,17.4917172 C41.2577782,17.7890901 39.7820215,17.9983454 38.1687137,18.1310477 C35.6390729,18.3391229 33.2921987,18.3518093 29.733112,18.2554836 C27.5717719,18.1969875 27.6341618,18.1984863 27.0754395,18.1984863 C25.8821728,18.1984863 23.8006178,18.0966466 20.0225212,17.8726391 C19.7479514,17.8563395 19.7479514,17.8563395 19.4737343,17.839998 C14.3897919,17.5368172 13.3400058,17.4797363 12.4387207,17.4797363 C11.0093904,17.4797363 7.61170142,17.304725 2.26187122,16.9549228 C1.98631725,16.9369055 1.74833073,17.1456803 1.73031345,17.4212343 C1.71229617,17.6967882 1.92107091,17.9347747 2.19662488,17.952792 Z" id="Shoe-Bottom" fill="#F0F0F0"></path>
                                        <path d="M22.5,4 C21.9477153,4 21.5,3.55228475 21.5,3 C21.5,2.44771525 21.9477153,2 22.5,2 C23.0522847,2 23.5,2.44771525 23.5,3 C23.5,3.55228475 23.0522847,4 22.5,4 Z M26,5.5 C25.4477153,5.5 25,5.05228475 25,4.5 C25,3.94771525 25.4477153,3.5 26,3.5 C26.5522847,3.5 27,3.94771525 27,4.5 C27,5.05228475 26.5522847,5.5 26,5.5 Z M30,7.5 C29.4477153,7.5 29,7.05228475 29,6.5 C29,5.94771525 29.4477153,5.5 30,5.5 C30.5522847,5.5 31,5.94771525 31,6.5 C31,7.05228475 30.5522847,7.5 30,7.5 Z M33.5,9 C32.9477153,9 32.5,8.55228475 32.5,8 C32.5,7.44771525 32.9477153,7 33.5,7 C34.0522847,7 34.5,7.44771525 34.5,8 C34.5,8.55228475 34.0522847,9 33.5,9 Z M37,10 C36.4477153,10 36,9.55228475 36,9 C36,8.44771525 36.4477153,8 37,8 C37.5522847,8 38,8.44771525 38,9 C38,9.55228475 37.5522847,10 37,10 Z M40.5,11 C39.9477153,11 39.5,10.5522847 39.5,10 C39.5,9.44771525 39.9477153,9 40.5,9 C41.0522847,9 41.5,9.44771525 41.5,10 C41.5,10.5522847 41.0522847,11 40.5,11 Z M44,12 C43.4477153,12 43,11.5522847 43,11 C43,10.4477153 43.4477153,10 44,10 C44.5522847,10 45,10.4477153 45,11 C45,11.5522847 44.5522847,12 44,12 Z" id="Shoelace-holes" fill="#F0F0F0"></path>
                                        <path d="M22.0491943,3 C22.2365316,1.8503418 22.613973,1.17781576 23.1815186,0.982421875 C23.7490641,0.787027995 24.2947998,0.96085612 24.8187256,1.50390625 C23.9395752,1.69010417 23.3208822,2.18880208 22.9626465,3 C22.6044108,3.81119792 22.2999268,3.81119792 22.0491943,3 Z M25.5,4.59513059 C25.6873372,3.44547239 26.0647786,2.77294634 26.6323242,2.57755246 C27.1998698,2.38215858 27.7456055,2.55598671 28.2695313,3.09903684 C27.3903809,3.28523476 26.7716878,3.78393267 26.4134521,4.59513059 C26.0552165,5.40632851 25.7507324,5.40632851 25.5,4.59513059 Z M29.5,6.59513059 C29.6873372,5.44547239 30.0647786,4.77294634 30.6323242,4.57755246 C31.1998698,4.38215858 31.7456055,4.55598671 32.2695312,5.09903684 C31.3903809,5.28523476 30.7716878,5.78393267 30.4134521,6.59513059 C30.0552165,7.40632851 29.7507324,7.40632851 29.5,6.59513059 Z M33,8.09513059 C33.1873372,6.94547239 33.5647786,6.27294634 34.1323242,6.07755246 C34.6998698,5.88215858 35.2456055,6.05598671 35.7695313,6.59903684 C34.8903809,6.78523476 34.2716878,7.28393267 33.9134521,8.09513059 C33.5552165,8.90632851 33.2507324,8.90632851 33,8.09513059 Z M36.5,9.09513059 C36.6873372,7.94547239 37.0647786,7.27294634 37.6323242,7.07755246 C38.1998698,6.88215858 38.7456055,7.05598671 39.2695313,7.59903684 C38.3903809,7.78523476 37.7716878,8.28393267 37.4134521,9.09513059 C37.0552165,9.90632851 36.7507324,9.90632851 36.5,9.09513059 Z M40,10.0951306 C40.1873372,8.94547239 40.5647786,8.27294634 41.1323242,8.07755246 C41.6998698,7.88215858 42.2456055,8.05598671 42.7695313,8.59903684 C41.8903809,8.78523476 41.2716878,9.28393267 40.9134521,10.0951306 C40.5552165,10.9063285 40.2507324,10.9063285 40,10.0951306 Z M43.5,11.0951306 C43.6873372,9.94547239 44.0647786,9.27294634 44.6323242,9.07755246 C45.1998698,8.88215858 45.7456055,9.05598671 46.2695313,9.59903684 C45.3903809,9.78523476 44.7716878,10.2839327 44.4134521,11.0951306 C44.0552165,11.9063285 43.7507324,11.9063285 43.5,11.0951306 Z" id="Shoelace" fill="#7F7F7F"></path>
                                    </g>
                                    <path d="M152.210379,61.6388732 C149.169737,75.6372061 146.553613,88.6185815 145.321992,97 C142.050799,119.261101 129.922852,176.603635 126.287109,203.996603 C121.958062,204.086479 115.154915,203.906727 110.825868,203.996603 C110.891846,202.890137 110.873604,202.277972 110.825868,201.583929 C108.549463,169.034812 111.397951,108.344069 114.296595,72.0825769 C115.406474,58.1981893 117.62419,15.9779679 120.522834,-1.44328993e-14 L132.667225,-1.44328993e-14 L178.847034,2.83625641e-14 L189.197238,77.3438775 L199,203.080865 C199,203.080865 191.724609,203.02832 184.28442,203.080865 C176.872867,162.588954 168.760482,125.164213 159.947266,90.8066406 C157.242206,80.2611947 154.663243,70.5386055 152.210379,61.6388732 Z" id="Pants" fill="#1F40E6"></path>
                                    <path d="M118.126984,12 C128.678455,13.8027344 139.284565,14.7041016 149.945312,14.7041016 C160.60606,14.7041016 171.269792,13.8027344 181.936508,12 L183,26 C171.833333,27.8040365 160.666667,28.7060547 149.5,28.7060547 C138.333333,28.7060547 127.166667,27.8040365 116,26 L118.126984,12 Z" id="Belt" fill="#00A9F4"></path>
                                </g>
                                <g id="Character/Body/Throwing/Shirt-+-Coat" transform="translate(0.000000, 79.000000)">
                                    <path d="M105.740001,57.660375 L115.803711,54.6455078 C110.600879,100.13685 107.690935,124.221613 107.073879,126.899798 C105.685503,132.925713 106.315508,140.943893 109.11792,145.251908 C103.353516,146.779462 100.725282,132.306028 100.029785,145.251908 C99.9648438,150.117676 101.533691,157.537722 97.4578479,157.473145 C95.3168945,157.23157 93.1928711,151.846191 93.8671875,141.973633 C94.2511698,137.281718 96.8415223,129.433899 97.4578479,124.669784 C98.6714221,115.289015 100.774979,103.369499 101.075825,89.5263672 C101.352745,76.7841797 102.907471,66.1621823 105.740001,57.660375 Z M235.529412,-7.58686332 L227.271586,-14.9294892 L250.267151,-41.2551525 C255.072787,-54.1716884 259.402721,-60.0484636 260.993033,-58.7706704 C263.3785,-56.8539806 257.047113,-49.6554135 259.615595,-48.9308041 C260.83313,-49.5139506 262.970941,-53.3390072 268.170648,-57.5128354 C272.104242,-60.7765072 275.494534,-56.7085672 274.633405,-55.0655524 C272.21737,-49.6733017 266.946877,-42.2483645 259.615595,-37.0956963 L235.529412,-7.58686332 Z" id="Arms" fill="#00A9F4"></path>
                                    <path d="M177.845179,27.0750713 C177.845179,20.2920713 177.393248,18.4517057 177.076159,12.4012923 C176.875137,8.56556252 174.016159,6.37429227 171.282159,4.53029227 C169.772159,3.51229227 159.95156,-0.81596116 158.03756,-0.42496116 C156.68456,-0.14996116 152.711838,7.65338276 146.351386,7.9019846 C140.84839,8.27805346 137.504497,6.62755515 131.090159,0.987292271 C129.631159,1.14129227 122.756177,3.08304151 119.79394,5.27929091 C116.831703,7.4755403 117.315159,8.12529227 116.865159,9.44729227 C115.433159,13.6562923 115.994159,18.3882923 116.361159,22.7242923 C117.570159,37.0332923 117.046368,48.0450575 117.046368,62.6919461 C117.046368,77.3388346 117.299042,103.544411 118.201349,115.368861 C125.855797,114.967709 151.610909,120.83584 185.754151,111.828569 C182.678952,93.1748857 177.845179,33.8580713 177.845179,27.0750713 Z" id="Shirt" fill="#FFFFFF" transform="translate(150.846259, 58.214938) rotate(3.000000) translate(-150.846259, -58.214938) "></path>
                                    <path d="M173.187211,5.11562609 C187.753917,1.58489963 200.213608,-2.44591217 210.566284,-6.9768093 C222.42008,-15.8261039 231.423053,-25.580163 244.623248,-38.6324091 C247.351322,-34.8775379 250.456254,-31.2292925 253.938045,-27.6876729 C239.851305,-11.7481408 229.32038,-0.400936753 222.345269,6.35393914 C207.83025,14.2701841 193.361243,18.8432624 179.526126,22.9256733 C179.501779,24.5321041 179.472592,26.3888904 179.437913,28.5307617 C179,55.5771484 188.77659,98.3896484 188.77659,134.643555 C179.340557,135.950948 180.679202,134.389648 173,134.643555 L161.09668,134.643555 C157.720228,118.498024 156.032002,104.958636 156.032002,94.0253906 C156.032002,65.3196615 155.489759,35.144043 154.405273,3.49853516 C156.942274,1.37615545 160.319881,0.147707002 161.09668,0.0317664137 C162.790833,-0.222810031 170.367391,3.46528974 173.187211,5.11562609 Z M111.582841,125.163935 L93.8671875,123.125 L106.161133,20.7128906 C107.425456,13.796875 110.048503,8.953125 114.030273,6.18164062 C117.083333,4.81933594 120.52946,3.68082682 124.368652,2.76611328 L124.36696,2.77674996 C127.792875,1.21623714 132.884559,0.0966543582 134.112298,0.0317664137 C136.84668,1.60302734 140.82243,3.35637347 143.520508,4.44091797 C147.314459,31.5382056 149.756376,53.6327694 150.846259,70.7246094 C152.524274,97.0397135 150.840675,116.47192 145.795462,129.021227 L143.520508,134.643555 C126.010771,136.136719 118.265857,134.643555 111.363281,132.953125 C111.319137,131.09875 111.404489,128.419916 111.582841,125.163935 Z M112.834338,108.110041 C114.298512,90.7221762 116.385617,69.9377424 116.858381,60.9168609 C117.156224,55.2336752 117.504313,50.1026622 117.791745,45.1108144 L116.402344,55.1513672 L112.834338,108.110036 Z" id="Coat" fill="#051C2C"></path>
                                    <path d="M114.71971,86.0503028 C114.71971,100.697191 113.756697,124.94887 113.544076,133.325057 C113.544076,133.325057 122.308719,135.320607 131.186611,134.770192 C122.869074,108.777786 119.114332,60.8725929 115.703902,47.5451453 C115.635853,50.5150572 114.800207,82.4079287 114.71971,86.0503028 Z" id="Fill-1" fill-opacity="0.2" fill="#000000" transform="translate(122.365343, 91.205679) rotate(3.000000) translate(-122.365343, -91.205679) "></path>
                                </g>
                            </g>
                        </g>
                        <g id="Scene/Tree-1" mask="url(#mask-2)">
                            <g transform="translate(179.000000, 111.000000)">
                                <path d="M36.9344626,3.7805 L1.14272025,150.577 C0.383591411,153.689 2.75605767,156.6865 5.97770184,156.6865 L41.7699472,156.6865 L77.5621926,156.6865 C80.7838368,156.6865 83.1563031,153.689 82.3971742,150.577 L46.6054319,3.7805 C45.375935,-1.26 38.1634564,-1.26 36.9344626,3.7805" id="Leaves" fill="#1F40E6"></path>
                                <path d="M40.116019,140.466076 L40.4412282,123.326751 L19.6567104,115.2249 L40.4879763,120.863015 L40.7339537,107.8994 L19.656811,99.9431 L40.7718609,105.901597 L41.05847,90.7965975 L28.2045313,85.80365 L41.0867437,89.3065035 L41.7700982,53.29205 L42.4534456,89.3061363 L55.3349607,85.8036 L42.4817167,90.7960893 L42.7683321,105.901427 L63.8834859,99.9429 L42.8062395,107.899239 L43.0522186,120.862936 L63.8833853,115.2251 L43.0989641,123.326538 L43.4241796,140.466192 L70.2601178,133.09675 L43.4802716,143.422381 L44.0339018,172.60005 L39.5062945,172.60005 L40.0599272,143.422251 L13.2796761,133.09665 L40.116019,140.466076 Z" id="Branches" fill="#00A9F4"></path>
                            </g>
                        </g>
                        <g id="Scene/Tree-4" mask="url(#mask-2)">
                            <g transform="translate(258.000000, 151.000000)">
                                <path d="M37.5,0 L37.5,0 C58.2106781,-3.80448985e-15 75,16.7893219 75,37.5 L75,127 C75,130.865993 71.8659932,134 68,134 L7,134 C3.13400675,134 4.73447626e-16,130.865993 0,127 L0,37.5 C-2.53632657e-15,16.7893219 16.7893219,3.80448985e-15 37.5,0 Z" id="Leaves" fill="#F0F0F0"></path>
                                <path d="M35.8455544,119.948981 L36.1708752,102.853903 L15.3792232,94.772967 L36.2176393,100.396527 L36.4637012,87.4663778 L15.3793239,79.5306178 L36.5016214,85.4737331 L36.7883289,70.4077275 L23.9299781,65.4276696 L36.8166123,68.9214803 L37.5002013,33 L38.1837833,68.921114 L51.06972,65.4276197 L38.2120641,70.4072206 L38.4987779,85.4735628 L59.6211793,79.5304183 L38.5366983,87.4662173 L38.7827618,100.396448 L59.6210787,94.7731665 L38.8295233,102.853691 L39.1548505,119.949098 L66,112.59868 L39.2109618,122.897654 L39.764782,152 L35.2356206,152 L35.7894433,122.897525 L9,112.59858 L35.8455544,119.948981 Z" id="Branches" fill="#00A9F4"></path>
                            </g>
                        </g>
                    </g>
                    <g id="Objects/Paper-Plane" transform="translate(262.000000, 14.000000)">
                        <g id="Paper-Plane" transform="translate(2.800000, 4.200000)">
                            <polygon id="Fill-3" fill="#00A9F4" points="21.893932 26.0064605 58.5157055 0.794692973 0.222944096 0.37772"></polygon>
                            <polygon id="Fill-5" fill="#1F40E6" points="13.6680954 16.2779059 58.5162014 0.794549189 7.12216771 8.53586811 7.12216771 23.1435816"></polygon>
                            <polygon id="Fill-7" fill="#051C2C" points="7.12202602 23.1434378 17.2760067 20.5452649 13.6679537 16.2777622"></polygon>
                        </g>
                    </g>
                </g>
            </g>
        </g>
    </g>
</svg>