<?xml version="1.0" encoding="UTF-8"?>
<svg width="118px" height="37px" viewBox="0 0 118 37" version="1.1" xmlns="http://www.w3.org/2000/svg" xmlns:xlink="http://www.w3.org/1999/xlink">
    <!-- Generator: Sketch 55.1 (78136) - https://sketchapp.com -->
    <title>McK_ScriptMark_RGB_McKDeepBlue</title>
    <desc>Created with Sketch.</desc>
    <g id="Page-1" stroke="none" stroke-width="1" fill="none" fill-rule="evenodd">
        <g id="Asset-List_Curator-View-1" transform="translate(-44.000000, -22.000000)" fill="#051C2C">
            <g id="Nav">
                <g id="McK_ScriptMark_RGB_McKDeepBlue" transform="translate(44.000000, 22.000000)">
                    <path d="M1.73569133,1.78252134 C1.73569133,1.49910905 0.943454335,0.742545249 0.679147977,0.742545249 L0.000136416185,0.742545249 L0.000136416185,0.0615352645 L3.99951792,0.0615352645 L8.11212486,10.4442025 L8.2069341,10.4442025 L12.5456509,0.0615352645 L16.1299861,0.0615352645 L16.1299861,0.742545249 L15.4509746,0.742545249 C15.1870092,0.742545249 14.3944312,1.49910905 14.3944312,1.78252134 L14.3944312,12.1084378 C14.3944312,12.3921919 15.1870092,13.1484139 15.4509746,13.1484139 L16.1299861,13.1484139 L16.1299861,13.8294239 L10.810096,13.8294239 L10.810096,13.1484139 L11.4894486,13.1484139 C11.7534139,13.1484139 12.5456509,12.3921919 12.5456509,12.1084378 L12.5456509,2.08507849 L7.54633873,14.0752302 L2.54668555,1.87722002 L2.54668555,12.1084378 C2.54668555,12.3921919 3.33926358,13.1484139 3.6032289,13.1484139 L4.2825815,13.1484139 L4.2825815,13.8294239 L0.000136416185,13.8294239 L0.000136416185,13.1484139 L0.679147977,13.1484139 C0.943454335,13.1484139 1.73569133,12.3921919 1.73569133,12.1084378 L1.73569133,1.78252134 Z" id="Fill-1"></path>
                    <path d="M21.9106902,7.94791805 C22.1558983,6.56743697 21.9294474,5.31926054 20.4015861,5.31926054 C18.6281757,5.31926054 17.7602277,6.73768947 17.7602277,8.83678651 C17.7602277,10.8223819 19.0241237,12.4678141 21.0618405,12.4678141 C22.6088,12.4678141 23.2690543,11.9194507 23.8917942,10.8794746 L24.4388231,10.8794746 C23.8539387,12.8271221 22.6650717,14.0561537 20.4391006,14.0561537 C17.9679214,14.0561537 16.3643491,11.9382537 16.3643491,9.40429483 C16.3643491,6.52948913 18.2694012,4.63825056 20.6092798,4.63825056 C22.0051584,4.63825056 22.9484763,5.07311235 23.7598116,5.88642699 L22.4577191,7.91031208 L21.9106902,7.94791805 Z" id="Fill-4"></path>
                    <path d="M39.8700855,2.78509658 C40.5303399,2.78509658 41.0210971,2.33108992 41.0210971,1.63161883 C41.0210971,0.931805855 40.5303399,0.496944058 39.8700855,0.496944058 C39.2098312,0.496944058 38.7006578,0.931805855 38.7006578,1.63161883 C38.7006578,2.33108992 39.2098312,2.78509658 39.8700855,2.78509658" id="Fill-6"></path>
                    <path d="M52.5102387,13.148619 C52.2462734,13.148619 51.5294064,12.5055569 51.5294064,12.2029997 L51.5294064,7.22909697 C51.5294064,5.69750825 50.4350075,4.67599328 49.0578861,4.67599328 C47.4543139,4.67599328 46.6238803,5.60315145 45.5489208,6.6995365 L45.2092445,4.86539063 L42.398048,4.86539063 L42.398048,5.54605874 L42.9450769,5.54605874 C43.2093832,5.54605874 43.9265913,6.20792387 43.9265913,6.49167803 L43.9265913,12.2029997 C43.9265913,12.5055569 43.2093832,13.148619 42.9450769,13.148619 L42.398048,13.148619 L41.8510191,13.148619 C41.605811,13.148619 40.8698457,12.5055569 40.8698457,12.2029997 L40.8698457,4.86539063 L37.6817994,4.86539063 L37.6817994,5.54605874 L38.2288283,5.54605874 C38.4927936,5.54605874 39.2100017,6.20792387 39.2100017,6.49167803 L39.2100017,12.2029997 C39.2100017,12.5055569 38.4927936,13.148619 38.2288283,13.148619 L37.6817994,13.148619 L37.2288977,13.148619 C36.9461751,13.148619 35.8330191,12.2976984 35.6065682,11.9951412 L30.7958514,5.58366472 L34.1349786,1.99058493 C34.323574,1.78272646 35.6253254,0.742750372 35.8896318,0.742750372 L36.5498861,0.742750372 L36.5498861,0.061740388 L31.5693312,0.061740388 L31.5693312,0.742750372 L32.2295855,0.742750372 C32.4938919,0.742750372 33.2673717,1.68802779 33.059678,1.93417597 L28.1544931,7.41849433 L28.1544931,1.78272646 C28.1544931,1.49931417 28.9470711,0.742750372 29.2110364,0.742750372 L29.890389,0.742750372 L29.890389,0.061740388 L24.5323023,0.061740388 L24.5323023,0.742750372 L25.2113139,0.742750372 C25.4756202,0.742750372 26.2681983,1.49931417 26.2681983,1.78272646 L26.2681983,12.108301 C26.2681983,12.3923971 25.4756202,13.148619 25.2113139,13.148619 L24.5323023,13.148619 L24.5323023,13.829629 L29.890389,13.829629 L29.890389,13.148619 L29.2110364,13.148619 C28.9470711,13.148619 28.1544931,12.3923971 28.1544931,12.108301 L28.1544931,8.45847042 L29.5507127,6.94568469 L34.3048168,13.829629 L37.6817994,13.829629 L42.398048,13.829629 L47.0583659,13.829629 L47.0583659,13.148619 L46.5491925,13.148619 C46.2848861,13.148619 45.567678,12.5055569 45.567678,12.2029997 L45.567678,7.64515578 C45.567678,7.04038336 47.2091058,5.79186506 48.4730017,5.79186506 C49.4354179,5.79186506 49.8879786,6.45373018 49.8879786,7.32379565 L49.8879786,12.2029997 C49.8879786,12.5055569 49.1707705,13.148619 48.9068052,13.148619 L48.3976318,13.148619 L48.3976318,13.829629 L52.9631405,13.829629 L52.9631405,13.148619 L52.5102387,13.148619 Z" id="Fill-8"></path>
                    <path d="M54.1668087,10.6900772 C54.1668087,11.5221949 55.374774,13.3187347 57.2989243,13.3187347 C58.4117393,13.3187347 59.0341382,12.9214789 59.0341382,12.0897032 C59.0341382,11.0873331 58.147774,10.7468281 57.355537,10.4063231 C56.732115,10.1417138 56.2232827,9.9338553 55.5064156,9.6121533 C54.4314561,9.12054067 53.6197798,8.40158284 53.6197798,7.17255127 C53.6197798,5.56506685 54.582196,4.63825056 56.2986526,4.63825056 C57.2801671,4.63825056 57.827196,5.1110602 58.5065486,5.1110602 C58.7705139,5.1110602 58.9212538,5.05430937 58.9966237,4.86525388 L59.4870399,4.86525388 L59.4870399,7.62655792 L58.940011,7.62655792 C58.940011,6.88879711 57.9025659,5.31891867 56.2423809,5.31891867 C55.2045948,5.31891867 54.7138376,5.7732672 54.7138376,6.51068614 C54.7138376,7.28605293 55.2424503,7.56946522 56.167011,7.96672104 C56.8453405,8.2504752 57.355537,8.47747853 58.0911613,8.76123269 C59.0532364,9.13934365 60.1476353,9.91471044 60.1476353,11.3519424 C60.1476353,13.0541254 58.9778665,14.0561537 57.2989243,14.0561537 C56.167011,14.0561537 55.5064156,13.5269351 54.7329358,13.5269351 C54.3748434,13.5269351 54.2803751,13.6212919 54.0535832,13.8294922 L53.6197798,13.8294922 L53.6197798,10.6900772 L54.1668087,10.6900772 Z" id="Fill-10"></path>
                    <path d="M66.5455202,7.89116722 C66.6962601,6.62384593 66.4885665,5.33806353 64.7530116,5.33806353 C62.9045723,5.33806353 62.1682659,6.86999412 62.1123353,8.26927819 L66.5455202,7.89116722 Z M60.6966763,9.34720212 C60.6966763,6.69974162 62.489185,4.63825056 64.7908671,4.65739542 C66.8094855,4.6761984 67.9417399,6.05667948 68.035526,7.79646855 L68.0733815,8.43953068 L62.1307514,8.91234033 C62.1307514,10.7088802 63.3762312,12.4866171 65.3948497,12.4866171 C66.9233931,12.4866171 67.6211618,11.9003058 68.1678497,10.8791327 L68.7148786,10.8791327 C68.1303353,12.8271221 67.0171792,14.0373507 64.8287225,14.0373507 C62.3384451,14.0373507 60.6966763,11.8626998 60.6966763,9.34720212 L60.6966763,9.34720212 Z" id="Fill-12"></path>
                    <path d="M69.5999127,6.56723185 C69.4679301,6.2646747 68.675352,5.54605874 68.4489012,5.54605874 L68.0526121,5.54605874 L68.0526121,4.86539063 L72.7876179,4.86539063 L72.7876179,5.54605874 L72.2409301,5.54605874 C71.996063,5.54605874 71.4486931,6.1703179 71.4486931,6.51048102 L73.5235832,11.2949864 L75.560959,6.52962588 C75.5800572,6.1703179 75.0330283,5.54605874 74.7874792,5.54605874 L74.2411324,5.54605874 L74.2411324,4.86539063 L77.8060283,4.86539063 L77.8060283,5.54605874 L77.3913231,5.54605874 C77.1839705,5.54605874 76.5417913,6.22672686 76.353537,6.52962588 L73.3162306,13.3944253 L71.0711613,18.3495251 L70.259826,17.9710722 L72.6372191,13.0918682 L69.5999127,6.56723185 Z" id="Fill-14"></path>
                    <path d="M25.9463925,27.5575185 C25.9463925,29.5246528 28.040722,31.4152076 30.0027277,31.4152076 C31.2287682,31.4152076 32.2099416,31.0747026 32.9830803,30.489075 C30.9835601,28.768089 28.757248,26.6115573 27.0407913,24.6451068 C26.3239243,25.3825258 25.9463925,26.1394314 25.9463925,27.5575185 M26.5312769,20.9385254 C26.5312769,22.0352523 27.2856584,22.9241208 28.4745254,23.3781274 C30.2479358,25.288169 32.3797798,27.3117122 34.2473173,28.9759474 C34.775589,28.105882 34.9641844,27.1790657 34.9641844,26.0443909 C34.9641844,24.7774115 34.1340919,24.0208477 32.794826,23.9832417 L32.794826,23.3025736 L37.6621555,23.3025736 L37.6621555,23.9832417 L37.1338838,23.9832417 C36.8695775,23.9832417 35.9262595,25.0611656 35.9075023,25.4772244 C35.8696468,26.6495052 35.5490688,28.105882 34.6811208,29.3544003 C35.6810514,30.2241239 36.6809821,31.0374385 37.4732191,31.585802 L38.3036526,31.585802 L38.3036526,32.2664701 L36.8129647,32.2664701 C35.4736988,32.2664701 34.5303809,31.9071621 33.3984676,30.867186 C32.3040688,31.9263069 30.9081902,32.5126183 28.8895717,32.5126183 C26.6636006,32.5126183 24.5314156,30.867186 24.5314156,28.446387 C24.5314156,26.5363454 25.4938318,25.1370613 26.7386295,24.2669959 C26.0783751,23.4160753 25.6258145,22.6024187 25.6258145,21.3921902 C25.6258145,19.4253978 26.9084676,18.3286708 28.9270861,18.3286708 C30.1913231,18.3286708 30.8515775,18.7447297 31.4364618,18.7447297 C31.7379416,18.7447297 31.926878,18.7259267 32.0776179,18.4989233 L32.6625023,18.4989233 L32.6625023,21.7514981 L32.0776179,21.7514981 C32.0776179,20.8246818 30.7195948,18.9713911 28.8895717,18.9713911 C27.4179821,18.9713911 26.5312769,19.6900071 26.5312769,20.9385254" id="Fill-16"></path>
                    <path d="M52.4029815,23.3779223 C52.4029815,21.9598352 50.8185075,19.0850295 48.2344439,19.0850295 C45.8573919,19.0850295 44.442074,20.4091017 44.1968659,23.5102269 C44.1023977,24.7204555 44.1399121,25.7983795 44.2343803,27.0089499 C44.4611723,29.4106041 46.1210162,31.3961995 48.9131145,31.3961995 C51.2901665,31.3961995 52.440837,30.3945131 53.3278832,28.5784865 L54.0440682,28.5784865 C53.157704,31.0372334 51.2338948,32.5124131 48.4984092,32.5124131 C44.5549584,32.5124131 42.0084092,29.2594965 42.0084092,25.3255698 C42.0084092,21.391985 44.3097503,18.2529119 48.1583919,18.2529119 C49.6299815,18.2529119 50.5545422,18.8580262 51.6298428,18.8580262 C52.0636462,18.8580262 52.2709988,18.7445245 52.4786925,18.4987182 L52.988548,18.4987182 L52.988548,23.3779223 L52.4029815,23.3779223 Z" id="Fill-18"></path>
                    <path d="M62.045048,29.2783678 C62.1579324,28.3703545 62.1579324,27.1413229 62.045048,26.2336515 C61.8748688,24.7964196 61.0826318,23.8319973 59.4224468,23.8319973 C57.8192156,23.8319973 57.0078803,24.7964196 56.8001867,26.2145066 C56.668204,27.0845721 56.668204,28.3703545 56.8001867,29.2595648 C57.0078803,30.6397041 57.7810191,31.6615609 59.4224468,31.6615609 C61.101048,31.6615609 61.8748688,30.6776519 62.045048,29.2783678 M54.9701636,27.7843851 C54.9701636,24.8907764 57.0453948,23.0754335 59.4040306,23.0754335 C61.7619844,23.0754335 63.8372156,24.8907764 63.8372156,27.7843851 C63.8372156,30.6776519 61.7619844,32.5124815 59.4040306,32.5124815 C57.0453948,32.5124815 54.9701636,30.6776519 54.9701636,27.7843851" id="Fill-20"></path>
                    <path d="M78.3036064,30.6397041 C78.3036064,30.9422612 78.9826179,31.5856652 79.2465832,31.5856652 L79.6623116,31.5856652 L79.6623116,32.2663333 L75.2093462,32.2663333 L75.2093462,31.5856652 L75.7188607,31.5856652 C75.982826,31.5856652 76.6621786,30.9422612 76.6621786,30.6397041 L76.6621786,25.6661432 C76.6621786,24.7964196 76.2280341,24.1909634 75.2663,24.1909634 C74.0965312,24.1909634 72.6440399,25.3256382 72.6440399,25.9307525 L72.6440399,30.6397041 C72.6440399,30.9422612 73.3233925,31.5856652 73.5873578,31.5856652 L74.0965312,31.5856652 L74.0965312,32.2663333 L69.5501208,32.2663333 L69.5501208,31.5856652 L70.0592942,31.5856652 C70.3232595,31.5856652 71.0026121,30.9422612 71.0026121,30.6397041 L71.0026121,25.6661432 C71.0026121,24.7964196 70.5500514,24.1909634 69.5876353,24.1909634 C68.4178665,24.1909634 66.9650341,25.382389 66.9650341,25.9878452 L66.9650341,30.6397041 C66.9650341,30.9422612 67.6443867,31.5856652 67.908352,31.5856652 L68.4178665,31.5856652 L68.4178665,32.2663333 L63.871115,32.2663333 L63.871115,31.5856652 L64.3802884,31.5856652 C64.6442538,31.5856652 65.3242884,30.9422612 65.3242884,30.6397041 L65.3242884,24.9287242 C65.3242884,24.6449701 64.6442538,23.983105 64.3802884,23.983105 L63.871115,23.983105 L63.871115,23.3024368 L66.6069416,23.3024368 L66.9650341,25.023081 C67.984404,23.9451571 68.6443173,23.1133814 70.2100341,23.1133814 C71.3989012,23.1133814 72.3988318,23.7561016 72.5686699,25.0046199 C73.6627277,23.9263541 74.3604965,23.1321843 75.8702827,23.1321843 C77.2095486,23.1321843 78.3036064,24.0401977 78.3036064,25.6661432 L78.3036064,30.6397041 Z" id="Fill-22"></path>
                    <path d="M82.5827434,26.5741223 L82.5827434,28.9193675 C82.5827434,30.3186516 83.658385,31.5097353 85.167489,31.5097353 C86.6956913,31.5097353 87.4125584,30.5453131 87.6008127,29.127226 C87.7147202,28.2759635 87.7331364,27.2927383 87.619911,26.4606206 C87.4313156,25.0418498 86.6578358,24.1345203 85.3751827,24.1345203 C83.8657376,24.1345203 83.0162058,25.1748382 82.5827434,26.5741223 L82.5827434,26.5741223 Z M82.2996798,23.3024027 L82.6018416,25.1368904 C83.3753214,23.6996585 84.3561538,23.0753993 85.8277434,23.0753993 C87.9971017,23.0753993 89.3179514,24.9095452 89.3179514,27.6520462 C89.3179514,30.3945473 87.8085064,32.4556965 85.639148,32.4556965 C84.0730902,32.4556965 83.2433387,31.8502403 82.6018416,30.6967626 L82.6018416,34.9708523 C82.6018416,35.2737514 83.2996104,35.9164716 83.5448185,35.9164716 L84.1300439,35.9164716 L84.1300439,36.5971397 L79.4134543,36.5971397 L79.4134543,35.9164716 L79.9979977,35.9164716 C80.262304,35.9164716 80.9416566,35.2737514 80.9416566,34.9708523 L80.9416566,24.9286901 C80.9416566,24.6449359 80.262304,23.9834126 79.9979977,23.9834126 L79.4134543,23.9834126 L79.4134543,23.3024027 L82.2996798,23.3024027 Z" id="Fill-24"></path>
                    <path d="M95.4230532,29.6379493 C95.0455214,30.2998144 94.1022035,31.2074859 93.2342555,31.2074859 C92.3482324,31.2074859 91.8012035,30.5452789 91.8012035,29.770254 C91.8012035,28.8813855 92.1780532,28.2762712 93.2912092,27.992517 L95.4230532,27.4441536 L95.4230532,29.6379493 Z M108.685776,31.5855968 C108.42181,31.5855968 107.704602,30.9425347 107.704602,30.6396357 L107.704602,25.6664167 C107.704602,24.1344861 106.610545,23.113313 105.233082,23.113313 C103.629851,23.113313 102.799417,24.0397874 101.724117,25.1368562 L101.38444,23.3027103 L98.573926,23.3027103 L98.573926,23.9830366 L99.1209549,23.9830366 C99.3849202,23.9830366 100.101787,24.6449017 100.101787,24.9286559 L100.101787,30.6396357 C100.101787,30.9425347 99.3849202,31.5855968 99.1209549,31.5855968 L98.573926,31.5855968 L98.0453133,31.5855968 C97.8001052,31.5855968 97.0641399,30.9425347 97.0641399,30.6396357 L97.0641399,25.7611154 C97.0641399,24.0021814 95.649504,23.09451 93.7250127,23.09451 C91.9137468,23.09451 90.8766428,23.7180854 90.1406775,24.475333 L91.3292035,26.271531 L91.9703595,26.271531 C91.3104462,24.7399423 91.8012035,23.7560333 93.3290647,23.7560333 C94.932296,23.7560333 95.4414694,24.475333 95.4230532,25.7416286 L95.4039549,26.8578423 L93.1022728,27.3306519 C91.8383769,27.5956031 90.2157064,28.2191785 90.2157064,29.9969154 C90.2157064,31.4532922 91.2534925,32.4365174 92.479874,32.4365174 C93.8003827,32.4365174 94.7437006,31.3968832 95.4605676,30.4700669 L95.6870185,32.2662649 L98.573926,32.2662649 L103.233221,32.2662649 L103.233221,31.5855968 L102.724047,31.5855968 C102.459741,31.5855968 101.742874,30.9425347 101.742874,30.6396357 L101.742874,26.0821336 C101.742874,25.4770193 103.384302,24.2291848 104.648539,24.2291848 C105.610614,24.2291848 106.063175,24.890708 106.063175,25.7611154 L106.063175,30.6396357 C106.063175,30.9425347 105.345966,31.5855968 105.082001,31.5855968 L104.572828,31.5855968 L104.572828,32.2662649 L109.138336,32.2662649 L109.138336,31.5855968 L108.685776,31.5855968 Z" id="Fill-26"></path>
                    <path d="M109.793714,25.0044832 C109.66139,24.701926 108.869153,23.9833101 108.642702,23.9833101 L108.246754,23.9833101 L108.246754,23.302642 L112.98176,23.302642 L112.98176,23.9833101 L112.434731,23.9833101 C112.189864,23.9833101 111.642153,24.6075692 111.642153,24.9477323 L113.717725,29.7322377 L115.755442,24.9665353 C115.774199,24.6075692 115.226829,23.9833101 114.981621,23.9833101 L114.434592,23.9833101 L114.434592,23.302642 L118.000171,23.302642 L118.000171,23.9833101 L117.585124,23.9833101 C117.37709,23.9833101 116.736275,24.6639782 116.547338,24.9665353 L113.510032,31.8313348 L111.265303,36.7860927 L110.453627,36.4083236 L112.83102,31.5291195 L109.793714,25.0044832 Z" id="Fill-28"></path>
                </g>
            </g>
        </g>
    </g>
</svg>